# Blender v2.82 (sub 7) OBJ File: 'edificio.blend'
# www.blender.org
mtllib edificio.mtl
v 37.407597 87.006035 -13.375818
v 37.407597 87.006035 -3.098988
v 35.834026 87.006035 -3.098988
v 35.834026 87.006035 6.269306
v 35.834026 87.006035 15.637600
v -18.359943 87.006027 25.914431
v -37.998199 87.006027 25.914431
v -37.998199 87.006035 15.637598
v -36.424599 87.006035 15.637598
v -36.424599 87.006035 6.269304
v -36.424599 87.006035 -3.098989
v -37.998199 87.006035 -3.098989
v -37.998199 87.006035 -13.375820
v -18.359943 87.006035 -13.375820
v 17.769339 87.006035 -13.375818
v 32.737633 94.975471 -10.679508
v 17.769339 94.975471 -10.679508
v 17.769339 94.975471 -3.098986
v 32.737633 94.975471 -3.098985
v 17.769339 94.975471 6.269307
v 32.737633 94.975471 6.269307
v 17.769339 94.975471 15.637601
v 32.737633 94.975471 15.637601
v 17.769339 94.975471 23.218122
v 32.737633 94.975471 23.218122
v -0.295287 94.975471 -10.679508
v -0.295287 94.975471 -3.098986
v 17.769339 96.802856 -3.098986
v -0.295287 96.802856 -3.098986
v -0.295287 96.802849 6.269308
v 17.769339 96.802849 6.269308
v 10.100447 156.497528 9.974854
v 7.373604 156.497528 9.974854
v 7.373604 156.497528 11.932076
v 10.100447 156.497528 11.932076
v -0.295287 94.975471 15.637599
v -0.295287 94.975471 23.218122
v -18.359943 94.975471 -10.679508
v -18.359943 94.975471 -3.098987
v -18.359943 94.975471 6.269307
v -0.295287 94.975471 6.269307
v -18.359943 94.975471 15.637599
v -18.359943 94.975471 23.218122
v -33.328205 94.975471 -10.679511
v -33.328205 94.975471 -3.098987
v -33.328205 94.975471 6.269305
v -33.328205 94.975471 15.637599
v -33.328205 94.975471 23.218122
v 29.133629 87.006035 -8.598661
v 29.133629 88.376579 -8.598661
v 29.133629 88.376579 -3.098987
v 29.133629 87.006035 -3.098988
v 17.769339 87.006035 -8.598661
v 17.769339 88.376579 -8.598661
v 29.133629 88.376579 6.269306
v 29.133629 87.006035 6.269306
v 29.133629 88.376579 15.637600
v 29.133629 87.006035 15.637600
v 29.133629 88.376579 21.137276
v 29.133629 87.006035 21.137274
v 17.769339 88.376579 21.137276
v 17.769339 87.006035 21.137274
v -0.295287 87.006035 -8.598663
v -0.295287 88.376579 -8.598663
v -0.295287 88.376579 21.137276
v -0.295287 87.006035 21.137270
v -18.359943 87.006035 -8.598662
v -18.359943 88.376579 -8.598662
v -18.359943 88.376579 21.137272
v -18.359943 87.006035 21.137270
v -29.724171 87.006035 -3.098988
v -29.724171 88.376579 -3.098988
v -29.724171 88.376579 -8.598662
v -29.724171 87.006035 -8.598662
v -29.724171 87.006035 6.269304
v -29.724171 88.376579 6.269304
v -29.724171 87.006035 15.637598
v -29.724171 88.376579 15.637598
v -29.724171 88.376579 21.137272
v -29.724171 87.006035 21.137270
v 35.834026 88.376579 -12.467279
v 35.834026 97.615021 -12.467278
v 35.834026 97.615021 -3.098984
v 35.834026 88.376579 -3.098987
v 17.769339 88.376579 -12.467279
v 17.769339 97.615021 -12.467278
v 35.834026 97.615021 6.269308
v 35.834026 88.376579 6.269306
v 35.834026 97.615021 15.637602
v 35.834026 88.376579 15.637600
v 35.834026 97.615013 25.005894
v 35.834026 88.376572 25.005894
v 17.769339 97.615013 25.005894
v 17.769339 88.376572 25.005894
v -0.295287 88.376579 -12.467279
v -0.295287 97.615021 -12.467278
v -0.295287 97.615013 25.005894
v -0.295287 88.376572 25.005892
v -18.359943 88.376579 -12.467279
v -18.359943 97.615021 -12.467278
v -18.359943 97.615013 25.005892
v -18.359943 88.376572 25.005892
v -36.424599 88.376579 -3.098989
v -36.424599 97.615021 -3.098986
v -36.424599 97.615021 -12.467279
v -36.424599 88.376579 -12.467281
v -36.424599 88.376579 6.269304
v -36.424599 97.615021 6.269306
v -36.424599 88.376579 15.637598
v -36.424599 97.615021 15.637600
v -36.424599 97.615013 25.005892
v -36.424599 88.376572 25.005892
v 32.737633 97.615021 -10.679507
v 32.737633 97.615021 -3.098984
v 17.769339 97.615021 -10.679507
v 32.737633 97.615021 6.269308
v 32.737633 97.615021 15.637602
v 32.737633 97.615021 23.218122
v 17.769339 97.615021 23.218122
v -0.295287 97.615021 -10.679507
v -0.295287 97.615021 23.218122
v -18.359943 97.615021 -10.679507
v -18.359943 97.615021 23.218122
v -33.328205 97.615021 -3.098986
v -33.328205 97.615021 -10.679510
v -33.328205 97.615021 6.269308
v -33.328205 97.615021 15.637600
v -33.328205 97.615021 23.218122
v 35.834026 87.006035 -12.467279
v 17.769339 87.006035 -12.467279
v 35.834026 87.006027 25.005892
v 17.769339 87.006027 25.005892
v -0.295287 87.006035 -12.467279
v -0.295287 87.006027 25.005890
v -18.359943 87.006035 -12.467279
v -18.359943 87.006027 25.005890
v -36.424599 87.006035 -12.467281
v -36.424599 87.006027 25.005890
v 17.769339 96.802849 15.637602
v -0.295287 96.802849 15.637602
v 17.769339 102.488060 6.269309
v 17.769339 102.488060 15.637603
v -0.295287 102.488060 15.637603
v -0.295287 102.488060 6.269309
v 11.115663 102.488060 8.959629
v 11.115663 102.488060 12.947282
v 6.358389 102.488060 12.947281
v 6.358389 102.488060 8.959629
v 11.115663 125.381180 8.959634
v 11.115663 125.381180 12.947285
v 6.358389 125.381180 12.947285
v 6.358389 125.381180 8.959634
v 10.100447 125.381180 9.974849
v 10.100447 125.381180 11.932070
v 7.373604 125.381180 11.932070
v 7.373604 125.381180 9.974849
v 37.407604 87.006042 -3.098988
v 37.407604 -106.060722 -3.099025
v 35.834030 -106.060722 -3.099025
v 35.834030 87.006042 -3.098988
v 35.834030 87.006042 15.637602
v 35.834030 -106.060722 15.637564
v 37.407604 -106.060722 15.637564
v 37.407604 87.006042 15.637602
v 14.977497 -103.268883 22.823149
v 14.977497 84.214195 22.823181
v -0.295287 84.214195 22.823181
v -0.295287 -103.268883 22.823143
v -15.568101 84.214195 22.823181
v -15.568101 -103.268883 22.823143
v -37.998207 87.006042 15.637599
v -37.998207 -106.060722 15.637563
v -36.424603 -106.060722 15.637563
v -36.424603 87.006042 15.637599
v -36.424603 87.006042 -3.098990
v -36.424603 -106.060722 -3.099027
v -37.998207 -106.060722 -3.099027
v -37.998207 87.006042 -3.098990
v -15.162022 -102.862785 -9.776999
v -15.162022 83.808113 -9.776962
v -0.295287 83.808113 -9.776961
v -0.295287 -102.862785 -9.776999
v 14.571448 83.808113 -9.776961
v 14.571448 -102.862785 -9.776999
v -18.359945 -106.060722 -12.467319
v -18.359945 -106.060730 25.005857
v -0.295287 -106.060722 -12.467319
v -0.295287 -106.060730 25.005857
v 17.769341 -106.060722 -12.467319
v 17.769341 -106.060730 25.005857
v 17.769341 87.006042 -12.467280
v 17.769341 87.006035 25.005896
v -0.295287 87.006042 -12.467280
v -0.295287 87.006035 25.005892
v -18.359945 87.006042 -12.467280
v -18.359945 87.006035 25.005892
v -15.162022 -102.862785 -12.467319
v -0.295287 -102.862785 -12.467319
v -0.295287 83.808113 -12.467281
v -15.162022 83.808113 -12.467281
v 14.571448 -102.862785 -12.467319
v 14.571448 83.808113 -12.467281
v 14.977497 -103.268890 25.005857
v -0.295287 -103.268890 25.005857
v -0.295287 84.214188 25.005892
v 14.977497 84.214188 25.005896
v -15.568101 -103.268890 25.005857
v -15.568101 84.214188 25.005892
v 35.834030 87.006042 15.637602
v 37.407604 87.006042 15.637602
v 37.407604 87.006035 25.914434
v 17.769341 87.006035 25.914434
v 35.834030 87.006035 25.005896
v 17.769341 87.006035 25.005896
vt 1.199854 3.362687
vt 0.843354 3.362687
vt 1.199854 3.362687
vt 0.843354 3.362687
vt 0.402779 3.362687
vt 0.402779 3.362687
vt -0.037797 3.362687
vt -0.037797 3.362687
vt -0.394296 3.362687
vt 1.199854 3.362687
vt 0.843354 3.448626
vt 0.402779 3.448625
vt 0.843354 3.448626
vt 0.722063 4.244545
vt 0.803104 4.244545
vt 0.803104 4.244545
vt -0.037797 3.362687
vt -0.394296 3.362687
vt 1.199854 3.362687
vt 0.843354 3.362687
vt 0.843354 3.362687
vt 0.402779 3.362687
vt 0.402779 3.362687
vt -0.037797 3.362687
vt -0.394296 3.362687
vt 1.199854 3.362687
vt 0.843354 3.362687
vt 0.402779 3.362687
vt -0.037797 3.362687
vt -0.394296 3.362687
vt -0.077187 1.489028
vt -0.077187 1.461677
vt -0.077187 1.461677
vt 0.149608 1.489028
vt 0.149608 1.461677
vt 0.843354 3.052351
vt 0.402779 2.987897
vt 0.843354 2.987897
vt 0.402779 3.052351
vt -0.037797 2.987897
vt 1.368770 2.219994
vt 1.368770 2.179261
vt 1.368770 2.179261
vt 1.368770 2.219994
vt 1.031023 2.179261
vt 0.510119 1.489028
vt 0.510119 1.461677
vt 1.031023 2.219994
vt 0.494144 2.179261
vt 0.870632 1.489028
vt 0.870632 1.461677
vt 0.494144 2.219994
vt -0.042737 2.179261
vt 1.097425 1.489028
vt 1.097425 1.461677
vt 1.097425 1.461677
vt 1.097425 1.489028
vt 0.402779 3.052351
vt 0.843354 2.987897
vt 0.402779 2.987897
vt -0.037796 3.052351
vt -0.037796 2.987897
vt -0.042737 2.219994
vt -0.380481 2.179261
vt -0.380481 2.219994
vt -0.380481 2.179261
vt 2.387554 0.976819
vt 1.442234 0.044603
vt 2.387554 0.044603
vt 0.149608 1.673398
vt -0.210905 1.489028
vt 0.149608 1.489028
vt 1.442234 0.976819
vt 0.496914 0.044603
vt 0.496914 0.976819
vt -0.448406 0.044603
vt -0.448407 0.976819
vt -1.393727 0.044602
vt 1.567904 2.494560
vt 1.031023 2.219994
vt 1.567904 2.219994
vt 0.510119 1.673398
vt 0.510119 1.489028
vt 1.031023 2.494560
vt 0.494144 2.219994
vt 0.870632 1.673398
vt 0.870632 1.489028
vt 0.494144 2.494560
vt -0.042737 2.219994
vt -0.447385 1.046566
vt -1.362576 0.144059
vt -0.447385 0.144059
vt 1.231144 1.673398
vt 1.231144 1.489028
vt 0.467807 0.144059
vt 1.382997 1.046566
vt 1.382997 0.144059
vt -0.042737 2.494560
vt -0.579618 2.219994
vt 2.298189 1.046566
vt 2.298189 0.144059
vt -0.149111 1.673398
vt -0.210905 1.673398
vt -0.210905 1.673398
vt 0.843354 3.486820
vt 0.402779 3.486820
vt 0.843354 3.486820
vt 0.402779 3.486820
vt -0.037797 3.486820
vt 1.567904 2.494560
vt 1.475880 2.494560
vt 0.510119 1.673398
vt 1.031023 2.494560
vt 0.870632 1.673398
vt 0.494144 2.494560
vt 1.231144 1.673398
vt 1.169350 1.673398
vt 0.402779 3.486820
vt 0.843354 3.486820
vt 0.843354 3.486820
vt -0.037797 3.486820
vt 0.402779 3.486820
vt -0.487593 2.494560
vt -0.579618 2.494560
vt -0.579618 2.494560
vt 1.199854 3.486820
vt 1.199854 3.486820
vt -0.037797 3.486820
vt -0.394296 3.486820
vt -0.394296 3.486820
vt 1.199854 3.486820
vt -0.394296 3.486820
vt 1.199854 3.486820
vt -0.394296 3.486820
vt 1.199854 3.486820
vt -0.037797 3.486820
vt -0.394296 3.486820
vt -0.394296 3.362687
vt -0.210905 1.461677
vt -0.210905 1.461677
vt -0.210905 1.489028
vt 0.149608 1.461677
vt 0.402779 2.987897
vt 0.843354 2.987897
vt 0.843354 3.052351
vt 0.402779 3.052351
vt -0.037797 2.987897
vt -0.037797 3.052351
vt -0.037797 3.052351
vt 1.567904 2.179261
vt 1.567904 2.179261
vt 1.567904 2.219994
vt 1.031023 2.179261
vt 0.510119 1.461677
vt 0.494144 2.179261
vt 0.870632 1.461677
vt -0.042737 2.179261
vt 1.231144 1.461677
vt 1.231144 1.461677
vt 1.231144 1.489028
vt 0.843354 2.987897
vt 0.402779 2.987897
vt 0.843354 3.052351
vt 0.402779 3.052351
vt 0.843354 3.052351
vt -0.037796 2.987897
vt -0.037796 3.052351
vt -0.579618 2.179261
vt -0.579618 2.179261
vt -0.579618 2.219994
vt -0.242309 1.461677
vt 0.149608 1.461677
vt -0.042737 2.179261
vt -0.626384 2.179261
vt 1.262549 1.461677
vt 0.870632 1.461677
vt 0.402779 3.448625
vt -0.037797 3.448625
vt 1.031023 2.639386
vt 1.031023 2.470422
vt 1.031023 2.470422
vt 1.031023 2.639386
vt 0.494144 2.470422
vt 0.494144 2.639386
vt 0.494144 2.470422
vt 0.510119 1.770648
vt 0.149608 1.657189
vt 0.510119 1.657189
vt 0.833276 2.639386
vt 0.833276 2.639386
vt 0.691890 2.639386
vt 0.494144 2.639386
vt 0.377334 1.770648
vt 0.149608 1.770648
vt 0.833276 3.319769
vt 0.833276 3.319769
vt 0.691890 3.319769
vt 0.691890 2.639386
vt 0.377334 2.227521
vt 0.282394 1.770648
vt 0.803104 3.319769
vt 0.803104 3.319769
vt 0.722063 3.319769
vt 0.691890 3.319769
vt 0.357073 2.227521
vt 0.282394 2.227521
vt 0.722063 4.244545
vt 0.722063 3.319769
vt 0.357073 2.848503
vt 0.302654 2.227521
vt -0.242309 -2.391314
vt -0.210905 1.461677
vt -0.210905 -2.391314
vt 1.614672 2.179262
vt 1.567905 -3.558672
vt 1.567905 2.179262
vt -0.626384 -3.558672
vt -0.579618 2.179262
vt -0.579618 -3.558672
vt 1.262549 1.461677
vt 1.231144 -2.391314
vt 1.231144 1.461677
vt 0.052305 -3.463629
vt 0.494144 -3.558672
vt -0.042737 -3.558672
vt 0.494144 2.179262
vt 0.052305 2.084219
vt -0.042737 2.179262
vt 0.870632 1.461677
vt 0.806812 -2.327494
vt 0.870632 -2.391314
vt 0.935982 -3.463629
vt 1.031023 -3.558672
vt 0.213427 -2.327494
vt 0.149608 1.461677
vt 0.149608 -2.391314
vt 0.935982 2.084219
vt 1.031023 2.179262
vt 0.052305 -3.463629
vt 0.494144 -3.463629
vt 0.494144 2.084219
vt 0.494144 2.084219
vt 0.806812 1.397856
vt 0.806812 1.397856
vt 0.494144 -3.463629
vt 0.213427 -2.327494
vt 0.213427 1.397856
vt 0.935982 2.084219
vt 0.948050 -3.475699
vt 0.494144 -3.558672
vt 1.031023 -3.558672
vt 0.494144 2.179261
vt 0.948050 2.096288
vt 1.031023 2.179261
vt 0.040237 -3.475699
vt -0.042737 -3.558672
vt -0.042737 2.179261
vt 0.040237 2.096288
vt 0.948050 -3.475698
vt 0.494144 -3.475699
vt 0.494144 2.096288
vt 0.948050 2.096288
vt 0.494144 -3.475698
vt 0.040237 -3.475698
vt 0.040237 2.096288
vt 1.567905 2.179261
vt 1.614672 2.179262
vt 1.567905 2.179262
vt 1.031023 2.179261
vt 1.031023 2.179261
vt -0.077187 1.489028
vt -0.380481 2.219994
vt -1.393727 0.976819
vt -1.362576 1.046566
vt 0.467807 1.046566
vt -0.149111 1.673398
vt 0.149608 1.673398
vt 1.475880 2.494560
vt -0.042737 2.494560
vt 1.169350 1.673398
vt -0.487593 2.494560
vt -0.242309 1.461677
vt -0.626384 2.179261
vt 1.262549 1.461677
vt -0.037797 3.448625
vt 0.302654 2.848503
vt -0.242309 1.461677
vt 1.614672 -3.558672
vt -0.626384 2.179262
vt 1.262549 -2.391314
vt 0.052305 2.084219
vt 0.806812 -2.327494
vt 0.935982 -3.463629
vt 0.213427 1.397856
vt 0.494144 2.096288
vt 1.614672 2.179261
vn 0.0000 1.0000 0.0000
vn 1.0000 0.0000 0.0000
vn 0.0000 0.0000 -1.0000
vn 0.0000 -0.0000 1.0000
vn -1.0000 -0.0000 0.0000
vn 0.0000 -1.0000 0.0000
usemtl Azotea
s off
f 17/1/1 19/2/1 16/3/1
f 18/4/1 21/5/1 19/2/1
f 20/6/1 23/7/1 21/5/1
f 22/8/1 25/9/1 23/7/1
f 26/10/1 18/4/1 17/1/1
f 29/11/1 31/12/1 28/13/1
f 33/14/1 35/15/1 32/16/1
f 36/17/1 24/18/1 22/8/1
f 38/19/1 27/20/1 26/10/1
f 39/21/1 41/22/1 27/20/1
f 40/23/1 36/17/1 41/22/1
f 42/24/1 37/25/1 36/17/1
f 44/26/1 39/21/1 38/19/1
f 45/27/1 40/23/1 39/21/1
f 46/28/1 42/24/1 40/23/1
f 47/29/1 43/30/1 42/24/1
f 50/31/2 52/32/2 49/33/2
f 54/34/3 49/33/3 53/35/3
f 51/36/2 56/37/2 52/38/2
f 55/39/2 58/40/2 56/37/2
f 57/41/2 60/42/2 58/43/2
f 59/44/4 62/45/4 60/42/4
f 64/46/3 53/35/3 63/47/3
f 61/48/4 66/49/4 62/45/4
f 68/50/3 63/47/3 67/51/3
f 65/52/4 70/53/4 66/49/4
f 72/54/5 74/55/5 71/56/5
f 73/57/3 67/51/3 74/55/3
f 76/58/5 71/59/5 75/60/5
f 78/61/5 75/60/5 77/62/5
f 69/63/4 80/64/4 70/53/4
f 79/65/5 77/66/5 80/64/5
f 82/67/2 84/68/2 81/69/2
f 86/70/3 81/71/3 85/72/3
f 83/73/2 88/74/2 84/68/2
f 87/75/2 90/76/2 88/74/2
f 89/77/2 92/78/2 90/76/2
f 91/79/4 94/80/4 92/81/4
f 96/82/3 85/72/3 95/83/3
f 93/84/4 98/85/4 94/80/4
f 100/86/3 95/83/3 99/87/3
f 97/88/4 102/89/4 98/85/4
f 104/90/5 106/91/5 103/92/5
f 105/93/3 99/87/3 106/94/3
f 107/95/5 104/90/5 103/92/5
f 110/96/5 107/95/5 109/97/5
f 101/98/4 112/99/4 102/89/4
f 111/100/5 109/97/5 112/101/5
f 113/102/1 83/103/1 82/104/1
f 86/70/1 113/102/1 82/104/1
f 114/105/1 87/106/1 83/107/1
f 116/108/1 89/109/1 87/106/1
f 89/110/1 118/111/1 91/79/1
f 118/111/1 93/84/1 91/79/1
f 120/112/1 86/70/1 96/82/1
f 119/113/1 97/88/1 93/84/1
f 122/114/1 96/82/1 100/86/1
f 121/115/1 101/98/1 97/88/1
f 104/116/1 125/117/1 105/93/1
f 125/117/1 100/86/1 105/93/1
f 108/118/1 124/119/1 104/120/1
f 110/121/1 126/122/1 108/118/1
f 101/98/1 128/123/1 111/124/1
f 128/123/1 110/125/1 111/124/1
f 16/3/5 114/105/5 113/126/5
f 17/1/4 113/126/4 115/127/4
f 19/2/5 116/108/5 114/105/5
f 21/5/5 117/128/5 116/108/5
f 23/7/5 118/129/5 117/128/5
f 25/9/3 119/130/3 118/129/3
f 26/10/4 115/127/4 120/131/4
f 24/18/3 121/132/3 119/130/3
f 38/19/4 120/131/4 122/133/4
f 37/25/3 123/134/3 121/132/3
f 45/27/2 125/135/2 124/119/2
f 44/26/4 122/133/4 125/135/4
f 46/28/2 124/119/2 126/122/2
f 47/29/2 126/122/2 127/136/2
f 43/30/3 128/137/3 123/134/3
f 48/138/2 127/136/2 128/137/2
f 49/33/1 3/139/1 129/140/1
f 84/141/6 50/31/6 81/71/6
f 130/142/1 49/33/1 129/140/1
f 50/31/6 85/72/6 81/71/6
f 52/38/1 4/143/1 3/144/1
f 55/39/6 84/145/6 88/146/6
f 56/37/1 5/147/1 4/143/1
f 57/148/6 88/146/6 90/149/6
f 5/150/1 60/42/1 131/151/1
f 59/44/6 90/152/6 92/81/6
f 60/42/1 132/153/1 131/151/1
f 94/80/6 59/44/6 92/81/6
f 63/47/1 130/142/1 133/154/1
f 85/72/6 64/46/6 95/83/6
f 62/45/1 134/155/1 132/153/1
f 65/52/6 94/80/6 98/85/6
f 67/51/1 133/154/1 135/156/1
f 64/46/6 99/87/6 95/83/6
f 66/49/1 136/157/1 134/155/1
f 69/63/6 98/85/6 102/89/6
f 11/158/1 74/55/1 137/159/1
f 73/57/6 103/160/6 106/94/6
f 74/55/1 135/156/1 137/159/1
f 99/87/6 73/57/6 106/94/6
f 75/60/1 11/161/1 10/162/1
f 72/163/6 107/164/6 103/165/6
f 77/62/1 10/162/1 9/166/1
f 76/58/6 109/167/6 107/164/6
f 136/157/1 80/64/1 138/168/1
f 79/65/6 102/89/6 112/99/6
f 80/64/1 9/169/1 138/168/1
f 109/170/6 79/65/6 112/99/6
f 2/171/1 129/140/1 3/139/1
f 129/140/1 15/172/1 130/142/1
f 138/168/1 6/173/1 136/157/1
f 8/174/1 138/168/1 9/169/1
f 137/159/1 12/175/1 11/158/1
f 14/176/1 137/159/1 135/156/1
f 28/13/2 20/6/2 18/4/2
f 30/177/5 27/20/5 41/22/5
f 29/11/3 18/4/3 27/20/3
f 31/12/2 22/8/2 20/6/2
f 139/178/4 36/17/4 22/8/4
f 36/17/5 30/177/5 41/22/5
f 141/179/2 139/180/2 31/181/2
f 142/182/4 140/183/4 139/180/4
f 143/184/5 30/185/5 140/183/5
f 144/186/3 31/187/3 30/188/3
f 145/189/1 142/182/1 141/179/1
f 146/190/1 143/184/1 142/182/1
f 147/191/1 144/192/1 143/184/1
f 148/193/1 141/194/1 144/186/1
f 149/195/2 146/190/2 145/189/2
f 150/196/4 147/191/4 146/190/4
f 151/197/5 148/198/5 147/191/5
f 152/199/3 145/200/3 148/193/3
f 153/201/1 150/196/1 149/195/1
f 154/202/1 151/197/1 150/196/1
f 155/203/1 152/204/1 151/197/1
f 156/205/1 149/206/1 152/199/1
f 32/16/2 154/202/2 153/201/2
f 35/15/4 155/203/4 154/202/4
f 34/207/5 156/208/5 155/203/5
f 33/209/3 153/210/3 156/205/3
f 158/211/4 160/212/4 159/213/4
f 164/214/3 162/215/3 161/216/3
f 172/217/3 174/218/3 173/219/3
f 178/220/4 176/221/4 175/222/4
f 197/223/3 187/224/3 185/225/3
f 193/226/3 200/227/3 195/228/3
f 195/229/3 197/230/3 185/231/3
f 187/224/3 201/232/3 189/233/3
f 201/234/3 191/235/3 189/236/3
f 202/237/3 193/226/3 191/238/3
f 179/239/1 198/240/1 197/223/1
f 181/241/6 200/227/6 199/242/6
f 180/243/2 197/230/2 200/244/2
f 182/245/1 201/232/1 198/240/1
f 184/246/5 202/247/5 201/234/5
f 183/248/6 199/242/6 202/237/6
f 203/249/4 188/250/4 190/251/4
f 194/252/4 206/253/4 192/254/4
f 206/253/4 190/251/4 192/254/4
f 188/250/4 207/255/4 186/256/4
f 207/255/4 196/257/4 186/256/4
f 208/258/4 194/252/4 196/257/4
f 165/259/1 204/260/1 203/249/1
f 205/261/6 166/262/6 206/253/6
f 166/262/5 203/249/5 206/253/5
f 168/263/1 207/255/1 204/260/1
f 170/264/2 208/258/2 207/255/2
f 169/265/6 205/261/6 208/258/6
f 213/266/1 210/267/1 209/268/1
f 212/269/1 213/266/1 214/270/1
f 17/1/1 18/4/1 19/2/1
f 18/4/1 20/6/1 21/5/1
f 20/6/1 22/8/1 23/7/1
f 22/8/1 24/18/1 25/9/1
f 26/10/1 27/20/1 18/4/1
f 29/11/1 30/177/1 31/12/1
f 33/14/1 34/207/1 35/15/1
f 36/17/1 37/25/1 24/18/1
f 38/19/1 39/21/1 27/20/1
f 39/21/1 40/23/1 41/22/1
f 40/23/1 42/24/1 36/17/1
f 42/24/1 43/30/1 37/25/1
f 44/26/1 45/27/1 39/21/1
f 45/27/1 46/28/1 40/23/1
f 46/28/1 47/29/1 42/24/1
f 47/29/1 48/138/1 43/30/1
f 50/31/2 51/271/2 52/32/2
f 54/34/3 50/31/3 49/33/3
f 51/36/2 55/39/2 56/37/2
f 55/39/2 57/148/2 58/40/2
f 57/41/2 59/44/2 60/42/2
f 59/44/4 61/48/4 62/45/4
f 64/46/3 54/34/3 53/35/3
f 61/48/4 65/52/4 66/49/4
f 68/50/3 64/46/3 63/47/3
f 65/52/4 69/63/4 70/53/4
f 72/54/5 73/57/5 74/55/5
f 73/57/3 68/50/3 67/51/3
f 76/58/5 72/163/5 71/59/5
f 78/61/5 76/58/5 75/60/5
f 69/63/4 79/65/4 80/64/4
f 79/65/5 78/272/5 77/66/5
f 82/67/2 83/73/2 84/68/2
f 86/70/3 82/104/3 81/71/3
f 83/73/2 87/75/2 88/74/2
f 87/75/2 89/77/2 90/76/2
f 89/77/2 91/273/2 92/78/2
f 91/79/4 93/84/4 94/80/4
f 96/82/3 86/70/3 85/72/3
f 93/84/4 97/88/4 98/85/4
f 100/86/3 96/82/3 95/83/3
f 97/88/4 101/98/4 102/89/4
f 104/90/5 105/274/5 106/91/5
f 105/93/3 100/86/3 99/87/3
f 107/95/5 108/275/5 104/90/5
f 110/96/5 108/275/5 107/95/5
f 101/98/4 111/124/4 112/99/4
f 111/100/5 110/96/5 109/97/5
f 113/102/1 114/276/1 83/103/1
f 86/70/1 115/277/1 113/102/1
f 114/105/1 116/108/1 87/106/1
f 116/108/1 117/128/1 89/109/1
f 89/110/1 117/278/1 118/111/1
f 118/111/1 119/113/1 93/84/1
f 120/112/1 115/277/1 86/70/1
f 119/113/1 121/115/1 97/88/1
f 122/114/1 120/112/1 96/82/1
f 121/115/1 123/279/1 101/98/1
f 104/116/1 124/280/1 125/117/1
f 125/117/1 122/114/1 100/86/1
f 108/118/1 126/122/1 124/119/1
f 110/121/1 127/136/1 126/122/1
f 101/98/1 123/279/1 128/123/1
f 128/123/1 127/281/1 110/125/1
f 16/3/5 19/2/5 114/105/5
f 17/1/4 16/3/4 113/126/4
f 19/2/5 21/5/5 116/108/5
f 21/5/5 23/7/5 117/128/5
f 23/7/5 25/9/5 118/129/5
f 25/9/3 24/18/3 119/130/3
f 26/10/4 17/1/4 115/127/4
f 24/18/3 37/25/3 121/132/3
f 38/19/4 26/10/4 120/131/4
f 37/25/3 43/30/3 123/134/3
f 45/27/2 44/26/2 125/135/2
f 44/26/4 38/19/4 122/133/4
f 46/28/2 45/27/2 124/119/2
f 47/29/2 46/28/2 126/122/2
f 43/30/3 48/138/3 128/137/3
f 48/138/2 47/29/2 127/136/2
f 49/33/1 52/32/1 3/139/1
f 84/141/6 51/271/6 50/31/6
f 130/142/1 53/35/1 49/33/1
f 50/31/6 54/34/6 85/72/6
f 52/38/1 56/37/1 4/143/1
f 55/39/6 51/36/6 84/145/6
f 56/37/1 58/40/1 5/147/1
f 57/148/6 55/39/6 88/146/6
f 5/150/1 58/43/1 60/42/1
f 59/44/6 57/41/6 90/152/6
f 60/42/1 62/45/1 132/153/1
f 94/80/6 61/48/6 59/44/6
f 63/47/1 53/35/1 130/142/1
f 85/72/6 54/34/6 64/46/6
f 62/45/1 66/49/1 134/155/1
f 65/52/6 61/48/6 94/80/6
f 67/51/1 63/47/1 133/154/1
f 64/46/6 68/50/6 99/87/6
f 66/49/1 70/53/1 136/157/1
f 69/63/6 65/52/6 98/85/6
f 11/158/1 71/56/1 74/55/1
f 73/57/6 72/54/6 103/160/6
f 74/55/1 67/51/1 135/156/1
f 99/87/6 68/50/6 73/57/6
f 75/60/1 71/59/1 11/161/1
f 72/163/6 76/58/6 107/164/6
f 77/62/1 75/60/1 10/162/1
f 76/58/6 78/61/6 109/167/6
f 136/157/1 70/53/1 80/64/1
f 79/65/6 69/63/6 102/89/6
f 80/64/1 77/66/1 9/169/1
f 109/170/6 78/272/6 79/65/6
f 2/171/1 1/282/1 129/140/1
f 129/140/1 1/282/1 15/172/1
f 138/168/1 7/283/1 6/173/1
f 8/174/1 7/283/1 138/168/1
f 137/159/1 13/284/1 12/175/1
f 14/176/1 13/284/1 137/159/1
f 28/13/2 31/12/2 20/6/2
f 30/177/5 29/11/5 27/20/5
f 29/11/3 28/13/3 18/4/3
f 31/12/2 139/178/2 22/8/2
f 139/178/4 140/285/4 36/17/4
f 36/17/5 140/285/5 30/177/5
f 141/179/2 142/182/2 139/180/2
f 142/182/4 143/184/4 140/183/4
f 143/184/5 144/192/5 30/185/5
f 144/186/3 141/194/3 31/187/3
f 145/189/1 146/190/1 142/182/1
f 146/190/1 147/191/1 143/184/1
f 147/191/1 148/198/1 144/192/1
f 148/193/1 145/200/1 141/194/1
f 149/195/2 150/196/2 146/190/2
f 150/196/4 151/197/4 147/191/4
f 151/197/5 152/204/5 148/198/5
f 152/199/3 149/206/3 145/200/3
f 153/201/1 154/202/1 150/196/1
f 154/202/1 155/203/1 151/197/1
f 155/203/1 156/208/1 152/204/1
f 156/205/1 153/210/1 149/206/1
f 32/16/2 35/15/2 154/202/2
f 35/15/4 34/207/4 155/203/4
f 34/207/5 33/14/5 156/208/5
f 33/209/3 32/286/3 153/210/3
f 158/211/4 157/287/4 160/212/4
f 164/214/3 163/288/3 162/215/3
f 172/217/3 171/289/3 174/218/3
f 178/220/4 177/290/4 176/221/4
f 197/223/3 198/240/3 187/224/3
f 193/226/3 199/242/3 200/227/3
f 195/229/3 200/244/3 197/230/3
f 187/224/3 198/240/3 201/232/3
f 201/234/3 202/247/3 191/235/3
f 202/237/3 199/242/3 193/226/3
f 179/239/1 182/245/1 198/240/1
f 181/241/6 180/291/6 200/227/6
f 180/243/2 179/292/2 197/230/2
f 182/245/1 184/293/1 201/232/1
f 184/246/5 183/294/5 202/247/5
f 183/248/6 181/241/6 199/242/6
f 203/249/4 204/260/4 188/250/4
f 194/252/4 205/261/4 206/253/4
f 206/253/4 203/249/4 190/251/4
f 188/250/4 204/260/4 207/255/4
f 207/255/4 208/258/4 196/257/4
f 208/258/4 205/261/4 194/252/4
f 165/259/1 168/263/1 204/260/1
f 205/261/6 167/295/6 166/262/6
f 166/262/5 165/259/5 203/249/5
f 168/263/1 170/264/1 207/255/1
f 170/264/2 169/265/2 208/258/2
f 169/265/6 167/295/6 205/261/6
f 213/266/1 211/296/1 210/267/1
f 212/269/1 211/296/1 213/266/1
