# Blender v2.82 (sub 7) OBJ File: 'edificio.blend'
# www.blender.org
mtllib vidriosedficio.mtl
v 37.407597 -106.060707 -13.375856
v 37.407597 87.006035 -13.375818
v 37.407597 87.006035 -3.098988
v 37.407597 -106.060707 -3.099025
v 35.834026 -106.060707 -3.099025
v 35.834026 87.006035 -3.098988
v 35.834026 87.006035 6.269306
v 35.834026 -106.060707 6.269269
v 35.834026 87.006035 15.637600
v 35.834026 -106.060707 15.637563
v 37.407597 -106.060707 15.637563
v 37.407597 87.006035 15.637600
v 37.407597 87.006027 25.914431
v 37.407597 -106.060715 25.914396
v 17.769339 87.006027 25.914431
v 17.769339 -106.060715 25.914396
v 14.977496 -103.268867 22.823145
v 14.977496 84.214188 22.823179
v -0.295287 84.214188 22.823179
v -0.295287 -103.268867 22.823141
v -15.568100 84.214188 22.823179
v -15.568100 -103.268867 22.823141
v -18.359943 -106.060715 25.914391
v -18.359943 87.006027 25.914431
v -37.998199 87.006027 25.914431
v -37.998199 -106.060715 25.914391
v -37.998199 87.006035 15.637598
v -37.998199 -106.060707 15.637562
v -36.424599 -106.060707 15.637562
v -36.424599 87.006035 15.637598
v -36.424599 87.006035 6.269304
v -36.424599 -106.060707 6.269267
v -36.424599 87.006035 -3.098989
v -36.424599 -106.060707 -3.099026
v -37.998199 -106.060707 -3.099026
v -37.998199 87.006035 -3.098989
v -37.998199 87.006035 -13.375820
v -37.998199 -106.060707 -13.375859
v -18.359943 87.006035 -13.375820
v -18.359943 -106.060707 -13.375859
v -15.162021 -102.862770 -9.776998
v -15.162021 83.808105 -9.776961
v -0.295287 83.808105 -9.776960
v -0.295287 -102.862770 -9.776998
v 14.571447 83.808105 -9.776960
v 14.571447 -102.862770 -9.776998
v 17.769339 -106.060707 -13.375856
v 17.769339 87.006035 -13.375818
v -36.424599 -106.060707 -12.467320
v -18.359943 -106.060707 -12.467318
v -18.359943 -106.060707 -3.099025
v -18.359943 -106.060707 6.269269
v -18.359943 -106.060707 15.637562
v -18.359943 -106.060715 25.005854
v -36.424599 -106.060715 25.005854
v -0.295287 -106.060707 -12.467318
v -0.295287 -106.060707 -3.099025
v -0.295287 -106.060707 6.269269
v -0.295287 -106.060707 15.637562
v -0.295287 -106.060715 25.005854
v 17.769339 -106.060707 -12.467318
v 17.769339 -106.060707 -3.099025
v 17.769339 -106.060707 6.269269
v 17.769339 -106.060707 15.637563
v 17.769339 -106.060715 25.005854
v 35.834026 -106.060707 -12.467318
v 35.834026 -106.060715 25.005854
v 17.769339 87.006035 -12.467279
v 17.769339 87.006027 25.005892
v -18.359943 87.006035 -12.467279
v -18.359943 87.006027 25.005890
vt -0.801229 3.417814
vt -0.801229 -3.209550
vt -0.801229 -3.209550
vt -0.747213 -3.209550
vt -0.747213 3.417814
vt -0.747213 -3.209550
vt -0.747213 3.417814
vt -0.747213 -3.209550
vt -0.801229 3.417814
vt -0.801229 -3.209550
vt -0.801229 -3.209550
vt -0.801229 3.417814
vt -0.127110 -3.209550
vt -0.031275 3.321979
vt 0.492991 -3.113714
vt -0.031275 -3.113714
vt 0.492991 3.321979
vt 1.017258 -3.113714
vt 1.113093 3.417814
vt 1.787212 -3.209550
vt 1.113093 -3.209550
vt 1.787212 3.417814
vt 1.787212 -3.209550
vt 1.733195 3.417814
vt 1.733195 -3.209550
vt 1.733195 -3.209550
vt 1.733195 3.417814
vt 1.733195 -3.209550
vt 1.787212 3.417814
vt 1.787212 -3.209550
vt 1.787212 -3.209550
vt 1.787212 3.417814
vt 1.113093 -3.209550
vt 1.003319 3.308040
vt 0.492991 -3.099775
vt 1.003319 -3.099775
vt 0.492991 3.308040
vt -0.017336 -3.099775
vt -0.127110 3.417814
vt -0.127110 -3.209550
vt 1.113093 -3.209550
vt 1.733195 -3.209550
vt 1.113093 -3.209550
vt 1.113093 -3.209550
vt 1.733195 -3.209550
vt 0.492991 -3.209550
vt 1.113093 -3.209550
vt 0.492991 -3.209550
vt 0.492991 -3.209550
vt 0.492991 -3.209550
vt 1.113093 -3.209550
vt -0.127110 -3.209550
vt -0.127110 -3.209550
vt -0.127110 -3.209550
vt 0.492991 -3.209550
vt -0.747213 -3.209550
vt -0.127110 -3.209550
vt -0.127110 -3.209550
vt -0.127110 3.417814
vt -0.747213 -3.209550
vt -0.127110 3.417814
vt 1.113093 3.417814
vt 1.113093 3.417814
vt -0.801229 3.417814
vt -0.747213 3.417814
vt -0.127110 3.417814
vt 1.017258 3.321979
vt 1.787212 3.417814
vt 1.733195 3.417814
vt 1.113093 3.417814
vt -0.017336 3.308040
vn 1.0000 0.0000 0.0000
vn 0.0000 -0.0000 1.0000
vn -1.0000 0.0000 0.0000
vn 0.0000 0.0000 -1.0000
vn 0.0000 -1.0000 0.0000
usemtl Vidrio
s off
f 2/1/1 4/2/1 1/3/1
f 5/4/1 7/5/1 8/6/1
f 8/6/1 9/7/1 10/8/1
f 12/9/1 14/10/1 11/11/1
f 13/12/2 16/13/2 14/10/2
f 18/14/2 20/15/2 17/16/2
f 19/17/2 22/18/2 20/15/2
f 24/19/2 26/20/2 23/21/2
f 25/22/3 28/23/3 26/20/3
f 30/24/3 32/25/3 29/26/3
f 32/25/3 33/27/3 34/28/3
f 36/29/3 38/30/3 35/31/3
f 37/32/4 40/33/4 38/30/4
f 42/34/4 44/35/4 41/36/4
f 43/37/4 46/38/4 44/35/4
f 48/39/4 1/3/4 47/40/4
f 50/41/5 34/28/5 49/42/5
f 34/28/5 52/43/5 32/25/5
f 52/43/5 29/26/5 32/25/5
f 53/44/5 55/45/5 29/26/5
f 56/46/5 51/47/5 50/41/5
f 57/48/5 52/43/5 51/47/5
f 58/49/5 53/44/5 52/43/5
f 59/50/5 54/51/5 53/44/5
f 61/52/5 57/48/5 56/46/5
f 57/48/5 63/53/5 58/49/5
f 63/53/5 59/50/5 58/49/5
f 64/54/5 60/55/5 59/50/5
f 66/56/5 62/57/5 61/52/5
f 5/4/5 63/53/5 62/57/5
f 8/6/5 64/54/5 63/53/5
f 10/8/5 65/58/5 64/54/5
f 66/56/5 4/2/5 5/4/5
f 47/40/5 66/56/5 61/52/5
f 48/39/3 61/52/3 68/59/3
f 11/11/5 67/60/5 10/8/5
f 67/60/5 16/13/5 65/58/5
f 16/13/3 69/61/3 65/58/3
f 23/21/5 55/45/5 54/51/5
f 24/19/1 54/51/1 71/62/1
f 55/45/5 28/23/5 29/26/5
f 35/31/5 49/42/5 34/28/5
f 49/42/5 40/33/5 50/41/5
f 40/33/1 70/63/1 50/41/1
f 2/1/1 3/64/1 4/2/1
f 5/4/1 6/65/1 7/5/1
f 8/6/1 7/5/1 9/7/1
f 12/9/1 13/12/1 14/10/1
f 13/12/2 15/66/2 16/13/2
f 18/14/2 19/17/2 20/15/2
f 19/17/2 21/67/2 22/18/2
f 24/19/2 25/22/2 26/20/2
f 25/22/3 27/68/3 28/23/3
f 30/24/3 31/69/3 32/25/3
f 32/25/3 31/69/3 33/27/3
f 36/29/3 37/32/3 38/30/3
f 37/32/4 39/70/4 40/33/4
f 42/34/4 43/37/4 44/35/4
f 43/37/4 45/71/4 46/38/4
f 48/39/4 2/1/4 1/3/4
f 50/41/5 51/47/5 34/28/5
f 34/28/5 51/47/5 52/43/5
f 52/43/5 53/44/5 29/26/5
f 53/44/5 54/51/5 55/45/5
f 56/46/5 57/48/5 51/47/5
f 57/48/5 58/49/5 52/43/5
f 58/49/5 59/50/5 53/44/5
f 59/50/5 60/55/5 54/51/5
f 61/52/5 62/57/5 57/48/5
f 57/48/5 62/57/5 63/53/5
f 63/53/5 64/54/5 59/50/5
f 64/54/5 65/58/5 60/55/5
f 66/56/5 5/4/5 62/57/5
f 5/4/5 8/6/5 63/53/5
f 8/6/5 10/8/5 64/54/5
f 10/8/5 67/60/5 65/58/5
f 66/56/5 1/3/5 4/2/5
f 47/40/5 1/3/5 66/56/5
f 48/39/3 47/40/3 61/52/3
f 11/11/5 14/10/5 67/60/5
f 67/60/5 14/10/5 16/13/5
f 16/13/3 15/66/3 69/61/3
f 23/21/5 26/20/5 55/45/5
f 24/19/1 23/21/1 54/51/1
f 55/45/5 26/20/5 28/23/5
f 35/31/5 38/30/5 49/42/5
f 49/42/5 38/30/5 40/33/5
f 40/33/1 39/70/1 70/63/1
